HIERARCHY
ROOT Hips
{
	OFFSET 0.000000 0.000000 0.000000
	CHANNELS 6 Xposition Yposition Zposition Zrotation Yrotation Xrotation 
	JOINT LHipJoint
	{
		OFFSET 0.000000 0.000000 0.000000
		CHANNELS 3 Zrotation Yrotation Xrotation
		JOINT LeftUpLeg
		{
			OFFSET 1.363060 -1.794630 0.839290
			CHANNELS 3 Zrotation Yrotation Xrotation
			JOINT LeftLeg
			{
				OFFSET 2.448110 -6.726130 0.000000
				CHANNELS 3 Zrotation Yrotation Xrotation
				JOINT LeftFoot
				{
					OFFSET 2.562200 -7.039590 0.000000
					CHANNELS 3 Zrotation Yrotation Xrotation
					JOINT LeftToeBase
					{
						OFFSET 0.157640 -0.433110 2.322550
						CHANNELS 3 Zrotation Yrotation Xrotation
						End Site
						{
							OFFSET 0.000000 0.000000 0.000000
						}
					}
				}
			}
		}
	}
	JOINT RHipJoint
	{
		OFFSET 0.000000 0.000000 0.000000
		CHANNELS 3 Zrotation Yrotation Xrotation
		JOINT RightUpLeg
		{
			OFFSET -1.305520 -1.794630 0.839290
			CHANNELS 3 Zrotation Yrotation Xrotation
			JOINT RightLeg
			{
				OFFSET -2.542530 -6.985550 0.000000
				CHANNELS 3 Zrotation Yrotation Xrotation
				JOINT RightFoot
				{
					OFFSET -2.568260 -7.056230 0.000000
					CHANNELS 3 Zrotation Yrotation Xrotation
					JOINT RightToeBase
					{
						OFFSET -0.164730 -0.452590 2.363150
						CHANNELS 3 Zrotation Yrotation Xrotation
						End Site
						{
							OFFSET 0.000000 0.000000 0.000000
						}
					}
				}
			}
		}
	}
	JOINT LowerBack
	{
		OFFSET 0.000000 0.000000 0.000000
		CHANNELS 3 Zrotation Yrotation Xrotation
		JOINT Spine
		{
			OFFSET 0.028270 2.035590 -0.193380
			CHANNELS 3 Zrotation Yrotation Xrotation
			JOINT Spine1
			{
				OFFSET 0.056720 2.048850 -0.042750
				CHANNELS 3 Zrotation Yrotation Xrotation
				JOINT Neck
				{
					OFFSET 0.000000 0.000000 0.000000
					CHANNELS 3 Zrotation Yrotation Xrotation
					JOINT Neck1
					{
						OFFSET -0.054170 1.746240 0.172020
						CHANNELS 3 Zrotation Yrotation Xrotation
						JOINT Head
						{
							OFFSET 0.104070 1.761360 -0.123970
							CHANNELS 3 Zrotation Yrotation Xrotation
							End Site
							{
								OFFSET 0.000000 0.000000 0.000000
							}
						}
					}
				}
				JOINT LeftShoulder
				{
					OFFSET 0.000000 0.000000 0.000000
					CHANNELS 3 Zrotation Yrotation Xrotation
					JOINT LeftArm
					{
						OFFSET 3.362410 1.200890 -0.311210
						CHANNELS 3 Zrotation Yrotation Xrotation
						JOINT LeftForeArm
						{
							OFFSET 4.983000 -0.000000 -0.000000
							CHANNELS 3 Zrotation Yrotation Xrotation
							JOINT LeftHand
							{
								OFFSET 3.483560 -0.000000 -0.000000
								CHANNELS 3 Zrotation Yrotation Xrotation
								JOINT LeftFingerBase
								{
									OFFSET 0.000000 0.000000 0.000000
									CHANNELS 3 Zrotation Yrotation Xrotation
									JOINT LeftHandIndex1
									{
										OFFSET 0.715260 -0.000000 -0.000000
										CHANNELS 3 Zrotation Yrotation Xrotation
										End Site
										{
											OFFSET 0.000000 0.000000 0.000000
										}
									}
								}
								JOINT LThumb
								{
									OFFSET 0.000000 0.000000 0.000000
									CHANNELS 3 Zrotation Yrotation Xrotation
									End Site
									{
										OFFSET 0.000000 0.000000 0.000000
									}
								}
							}
						}
					}
				}
				JOINT RightShoulder
				{
					OFFSET 0.000000 0.000000 0.000000
					CHANNELS 3 Zrotation Yrotation Xrotation
					JOINT RightArm
					{
						OFFSET -3.136600 1.374050 -0.404650
						CHANNELS 3 Zrotation Yrotation Xrotation
						JOINT RightForeArm
						{
							OFFSET -5.241900 -0.000000 -0.000000
							CHANNELS 3 Zrotation Yrotation Xrotation
							JOINT RightHand
							{
								OFFSET -3.444170 -0.000000 -0.000000
								CHANNELS 3 Zrotation Yrotation Xrotation
								JOINT RightFingerBase
								{
									OFFSET 0.000000 0.000000 0.000000
									CHANNELS 3 Zrotation Yrotation Xrotation
									JOINT RightHandIndex1
									{
										OFFSET -0.622530 -0.000000 -0.000000
										CHANNELS 3 Zrotation Yrotation Xrotation
										End Site
										{
											OFFSET 0.000000 0.000000 0.000000
										}
									}
								}
								JOINT RThumb
								{
									OFFSET 0.000000 0.000000 0.000000
									CHANNELS 3 Zrotation Yrotation Xrotation
									End Site
									{
										OFFSET 0.000000 0.000000 0.000000
									}
								}
							}
						}
					}
				}
			}
		}
	}
}
MOTION
Frames: 10
Frame Time: 0.008333
5.577698 17.655220 2.308225 -178.643475 -28.298554 173.488139 6.924478 0.957268 -0.524501 -25.702479 -16.175795 8.919758 -1.284610 6.358093 19.425192 -4.795347 21.484730 -16.857821 0.196900 -2.857100 -7.881300 -9.639050 -0.104196 -2.946256 34.265766 13.280808 9.362244 -0.308318 -7.548321 20.977173 2.990404 -24.114417 -31.423977 -0.354100 3.823100 -10.579600 -0.472234 1.271487 5.208886 1.924711 1.803249 2.896020 -6.380687 0.712653 3.885943 4.236554 2.897376 -1.565615 9.615041 1.871212 10.158841 -1.249200 1.508000 2.585000 7.730054 4.504456 -0.973262 -95.503604 3.996278 25.457523 14.572662 -19.092878 -3.988294 -1.251981 -3.479619 0.705528 15.535813 7.295613 3.255200 -7.125000 0.000000 0.000000 -9.132000 41.141000 0.877400 -10.799826 -5.581478 0.562410 104.000081 -2.418259 33.999642 -13.944326 21.114336 -4.178810 0.744508 1.959644 -15.564205 -14.357250 4.670295 -0.814000 7.125000 0.000000 0.000000 8.381400 -26.931100 3.713400 
5.576557 17.653965 2.304576 -178.689709 -28.299233 173.488776 6.928008 0.952322 -0.524404 -25.753090 -16.155416 8.928882 -1.284518 6.361458 19.438129 -4.770930 21.426284 -16.922556 0.185000 -2.770200 -7.639600 -9.645220 -0.115919 -2.956967 34.237734 13.242274 9.410347 -0.316399 -7.546106 20.955361 3.353581 -24.953338 -30.711297 -0.564500 4.812000 -13.373100 -0.527309 1.274320 5.193051 1.917549 1.798749 2.896911 -6.306368 0.721445 3.870475 4.293541 2.851547 -1.640927 9.473397 1.828924 10.252089 -1.336300 1.498600 2.659300 7.847671 4.617074 -1.038441 -95.805564 4.717881 25.600623 14.938513 -19.687724 -4.099181 -2.158803 -3.168840 1.031239 20.262601 4.708394 3.296700 -7.125000 0.000000 0.000000 -3.824100 38.625400 0.601500 -10.787448 -5.630359 0.580900 103.809594 -2.316739 34.035760 -13.649656 20.659706 -4.005978 0.843776 1.737076 -14.880957 -13.911815 6.242897 -1.277500 7.125000 0.000000 0.000000 8.595700 -25.092700 4.184000 
5.577698 17.653053 2.304005 -178.456500 -28.282739 173.360227 6.921608 0.954003 -0.526948 -25.517636 -16.152731 8.877922 -1.264529 6.388466 19.541062 -4.765243 21.386980 -16.905176 0.196700 -2.856200 -7.878800 -9.657524 -0.120970 -2.949755 34.491944 13.251253 9.467732 -0.297729 -7.521268 20.859783 3.382976 -25.043169 -30.698234 -0.564800 4.813600 -13.377600 -0.343326 1.236261 5.242548 1.942646 1.747079 2.877730 -6.288962 0.708632 3.783428 4.331134 2.866055 -1.598858 9.367608 1.867150 10.269468 -1.389600 1.518700 2.669700 7.963210 4.684048 -1.069807 -95.919339 5.318347 25.972041 15.163304 -20.153024 -4.301276 -2.193626 -3.185344 0.699919 20.640432 4.427668 3.255700 -7.125000 0.000000 0.000000 -3.424500 38.367400 0.560100 -10.848308 -5.660179 0.571548 103.837719 -2.298616 35.146916 -13.807365 20.833138 -4.052506 0.804903 1.999102 -16.228121 -15.074035 4.580822 -0.827900 7.125000 0.000000 0.000000 7.774600 -27.029200 3.421600 
5.580093 17.653281 2.303207 -178.316235 -28.298111 173.311974 6.917676 0.952957 -0.531428 -25.352788 -16.130827 8.808481 -1.252261 6.405593 19.599674 -4.766334 21.367486 -16.859381 0.217900 -3.005100 -8.293100 -9.667992 -0.124653 -2.942243 34.654208 13.272406 9.450736 -0.284945 -7.510896 20.795513 3.473883 -25.307679 -30.626683 -0.612900 5.010500 -13.938600 -0.254352 1.193414 5.212990 1.956419 1.687582 2.872439 -6.237510 0.688610 3.787921 4.471217 2.850738 -1.652196 9.136674 1.882077 10.333623 -1.528200 1.533000 2.727700 8.018454 4.737158 -1.082386 -95.909159 5.708333 26.428908 15.259185 -20.494505 -4.587845 -1.394748 -3.589732 0.100659 16.879459 6.976348 3.504200 -7.125000 0.000000 0.000000 -7.753600 41.065900 0.757400 -10.813123 -5.666137 0.573546 103.812907 -2.053202 35.532790 -13.658461 20.542160 -3.945387 0.797036 2.021720 -16.312307 -15.158957 4.218138 -0.718900 7.125000 0.000000 0.000000 7.732400 -27.425000 3.330100 
5.580321 17.653851 2.302408 -178.317351 -28.271644 173.307097 6.922120 0.948149 -0.533227 -25.360687 -16.142490 8.806440 -1.245195 6.424592 19.655582 -4.767383 21.389642 -16.925373 0.216700 -2.996700 -8.269600 -9.668776 -0.127378 -2.941374 34.671790 13.288909 9.471752 -0.278131 -7.492417 20.734614 3.573913 -25.570379 -30.494929 -0.675900 5.256900 -14.642700 -0.221750 1.217168 5.198590 1.943243 1.717133 2.869449 -6.231103 0.714134 3.785630 4.658459 2.781005 -1.727570 8.883527 1.825121 10.434856 -1.688200 1.516400 2.810000 8.076640 4.784907 -1.107119 -95.852464 6.056265 27.042638 15.343694 -20.715880 -4.712955 -1.344743 -3.609975 -0.142811 16.717217 6.975110 3.468100 -7.125000 0.000000 0.000000 -7.928400 41.061200 0.775600 -10.772740 -5.656849 0.579323 103.853318 -1.799417 35.768417 -13.491396 20.226051 -3.837705 0.767491 2.041226 -16.428042 -15.039505 3.792277 -0.581300 7.125000 0.000000 0.000000 7.867900 -27.887600 3.302800 
5.580093 17.653053 2.301952 -178.263220 -28.161987 173.259229 6.925851 0.949168 -0.533742 -25.338851 -16.192185 8.891843 -1.248607 6.412872 19.649792 -4.766150 21.424632 -17.091307 0.194000 -2.836300 -7.823300 -9.667629 -0.125552 -2.935654 34.743160 13.345799 9.525079 -0.276331 -7.489983 20.734493 3.495657 -25.346108 -30.562887 -0.621800 5.046100 -14.040100 -0.190685 1.234262 5.223469 1.934829 1.737208 2.867321 -6.186969 0.729066 3.767407 4.782227 2.754111 -1.766827 8.716243 1.813179 10.493491 -1.788600 1.517000 2.859700 8.108898 4.799601 -1.122431 -95.680772 6.245604 27.639296 15.359666 -20.807312 -4.777065 -1.299748 -3.606815 -0.473025 16.528376 6.892469 3.394500 -7.125000 0.000000 0.000000 -8.098200 40.943800 0.816100 -10.721619 -5.635087 0.589372 103.919666 -1.541613 35.857162 -13.301119 19.887812 -3.735840 0.733231 2.005786 -16.217782 -14.576758 3.659213 -0.531600 7.125000 0.000000 0.000000 8.269300 -28.000400 3.452200 
5.580891 17.652825 2.299557 -178.284059 -28.034043 173.266526 6.929959 0.950509 -0.533635 -25.379999 -16.197991 8.977415 -1.257859 6.390491 19.605161 -4.773083 21.482865 -17.225564 0.174400 -2.689700 -7.416100 -9.666134 -0.127863 -2.931063 34.728034 13.362342 9.496600 -0.282421 -7.504187 20.767732 3.506520 -25.323673 -30.449883 -0.625100 5.059400 -14.078200 -0.327384 1.215594 5.243686 1.928060 1.703372 2.856798 -6.042780 0.706988 3.719928 4.784199 2.789991 -1.734295 8.658401 1.873068 10.493673 -1.809900 1.545500 2.858100 8.123608 4.795152 -1.129286 -95.511349 6.340480 27.931202 15.354948 -20.845120 -4.806906 -1.247405 -3.605662 -0.848333 16.296975 6.849764 3.324900 -7.125000 0.000000 0.000000 -8.316600 40.864500 0.854800 -10.685555 -5.617742 0.599063 103.991770 -1.357754 35.927766 -13.152751 19.627886 -3.662422 0.726337 1.939075 -15.861601 -14.155869 3.882188 -0.592900 7.125000 0.000000 0.000000 8.599600 -27.713000 3.652000 
5.581462 17.653395 2.297390 -178.362969 -27.948948 173.313143 6.936702 0.950746 -0.535141 -25.468022 -16.162986 9.018195 -1.264041 6.379087 19.570278 -4.806698 21.604368 -17.250703 0.171000 -2.663900 -7.344500 -9.662723 -0.134678 -2.933841 34.634704 13.313668 9.423584 -0.290206 -7.515673 20.783288 3.643268 -25.612546 -30.128064 -0.719900 5.422000 -15.116100 -0.453820 1.232523 5.218925 1.910533 1.719173 2.863196 -5.977255 0.714702 3.724485 4.756682 2.768152 -1.707727 8.651478 1.848224 10.462921 -1.800800 1.527900 2.830400 8.112983 4.793403 -1.128386 -95.434841 6.363972 27.857243 15.330294 -20.825140 -4.800883 -1.222233 -3.584848 -0.911380 16.127178 6.749072 3.248200 -7.125000 0.000000 0.000000 -8.461900 40.719500 0.900500 -10.663399 -5.613774 0.604553 104.144620 -1.233725 35.854842 -13.087055 19.489640 -3.620201 0.733700 1.917596 -15.608322 -14.088965 3.955709 -0.615000 7.125000 0.000000 0.000000 8.649000 -27.619600 3.692700 
5.582602 17.654650 2.295907 -178.418470 -27.903526 173.387650 6.938661 0.946576 -0.536901 -25.508455 -16.151614 8.988121 -1.269859 6.374294 19.541709 -4.832029 21.690157 -17.253021 0.183800 -2.761100 -7.614300 -9.655496 -0.136326 -2.930969 34.545602 13.298590 9.365981 -0.291934 -7.515127 20.784259 3.571982 -25.376000 -30.128132 -0.684700 5.290500 -14.739100 -0.535026 1.260203 5.157398 1.897074 1.753601 2.867735 -5.950823 0.732863 3.740445 4.764062 2.707657 -1.718437 8.628487 1.773539 10.459529 -1.810500 1.489300 2.824500 8.089776 4.796786 -1.125215 -95.397236 6.346574 27.614942 15.265581 -20.726513 -4.754082 -1.229697 -3.533954 -0.779441 16.040548 6.510345 3.142100 -7.125000 0.000000 0.000000 -8.487600 40.414800 0.967500 -10.640248 -5.612664 0.603626 104.334124 -1.136013 35.722429 -13.063195 19.408373 -3.590138 0.741720 1.937828 -15.425350 -14.251591 3.792717 -0.570800 7.125000 0.000000 0.000000 8.531900 -27.809000 3.603100 
5.583857 17.657159 2.293170 -178.343211 -27.867788 173.454554 6.933754 0.943729 -0.538007 -25.389234 -16.171445 8.895165 -1.275010 6.367062 19.516173 -4.816696 21.637660 -17.277502 0.190200 -2.808500 -7.746100 -9.656917 -0.131147 -2.918553 34.592949 13.354894 9.276843 -0.286374 -7.518439 20.772919 3.472952 -25.095154 -30.225020 -0.622300 5.048200 -14.046000 -0.498131 1.281031 5.038298 1.901357 1.786893 2.863077 -5.940221 0.749185 3.776369 4.792153 2.653337 -1.789010 8.606142 1.706378 10.503330 -1.824800 1.461000 2.858800 8.056971 4.792555 -1.120036 -95.334247 6.239217 27.342043 15.156198 -20.544693 -4.672878 -1.198691 -3.498964 -0.611715 15.750975 6.453776 3.051100 -7.125000 0.000000 0.000000 -8.760300 40.293500 1.025500 -10.609862 -5.603468 0.597475 104.523198 -1.039578 35.580382 -13.057281 19.364282 -3.574533 0.750705 1.950959 -15.329307 -14.372644 3.727863 -0.554000 7.125000 0.000000 0.000000 8.437500 -27.888900 3.546300 
